<svg id="Capa_1" data-name="Capa 1" xmlns="http://www.w3.org/2000/svg" xmlns:xlink="http://www.w3.org/1999/xlink" viewBox="0 0 313.71 267.43"><defs><style>.cls-1,.cls-2,.cls-5{fill:none;}.cls-1{clip-rule:evenodd;}.cls-3{clip-path:url(#clip-path);}.cls-4{fill:url(#Degradado_sin_nombre);}.cls-5{stroke:#000;stroke-miterlimit:22.93;stroke-width:0.57px;}.cls-6{clip-path:url(#clip-path-2);}.cls-7{fill:#150f11;}.cls-100,.cls-104,.cls-108,.cls-110,.cls-113,.cls-114,.cls-119,.cls-124,.cls-129,.cls-132,.cls-135,.cls-137,.cls-142,.cls-143,.cls-148,.cls-157,.cls-16,.cls-162,.cls-17,.cls-171,.cls-175,.cls-177,.cls-20,.cls-22,.cls-25,.cls-29,.cls-30,.cls-32,.cls-34,.cls-41,.cls-44,.cls-45,.cls-51,.cls-54,.cls-61,.cls-64,.cls-68,.cls-7,.cls-71,.cls-72,.cls-73,.cls-75,.cls-78,.cls-80,.cls-85,.cls-87,.cls-90,.cls-98{fill-rule:evenodd;}.cls-8{fill:#161011;}.cls-9{fill:#171012;}.cls-10{fill:#181113;}.cls-11{fill:#191214;}.cls-12{fill:#1a1315;}.cls-13{fill:#1b1416;}.cls-14{fill:#1c1517;}.cls-15,.cls-16{fill:#1d1518;}.cls-17,.cls-18{fill:#1f1619;}.cls-19,.cls-20{fill:#20181a;}.cls-21{fill:#21191b;}.cls-22,.cls-23{fill:#221a1c;}.cls-24{fill:#231a1d;}.cls-25,.cls-26{fill:#251b1e;}.cls-27{fill:#261c1f;}.cls-28,.cls-29{fill:#271e20;}.cls-30{fill:#281f21;}.cls-31,.cls-32{fill:#292022;}.cls-33{fill:#2a2123;}.cls-34,.cls-35{fill:#2c2024;}.cls-36{fill:#2d2124;}.cls-37{fill:#2e2325;}.cls-38{fill:#2f2427;}.cls-39{fill:#2f2527;}.cls-40,.cls-41{fill:#312629;}.cls-42{fill:#32272a;}.cls-43,.cls-44{fill:#332829;}.cls-45,.cls-46{fill:#34282a;}.cls-47{fill:#36292c;}.cls-48{fill:#362a2c;}.cls-49{fill:#372b2e;}.cls-50{fill:#392c2f;}.cls-51{fill:#3a2d2f;}.cls-52{fill:#3b2e31;}.cls-53{fill:#3c2f32;}.cls-54,.cls-55{fill:#3d3033;}.cls-56{fill:#3e3133;}.cls-57{fill:#3f3235;}.cls-58{fill:#413436;}.cls-59{fill:#423537;}.cls-60{fill:#433638;}.cls-61,.cls-62{fill:#443739;}.cls-63{fill:#45383a;}.cls-64,.cls-65{fill:#47393c;}.cls-66{fill:#473a3d;}.cls-67{fill:#493b3d;}.cls-68,.cls-69{fill:#4a3c3f;}.cls-70,.cls-71{fill:#4b3e40;}.cls-72{fill:#4c3e40;}.cls-73,.cls-74{fill:#4e4042;}.cls-75,.cls-76{fill:#4f4143;}.cls-77,.cls-78{fill:#504244;}.cls-79{fill:#524445;}.cls-80,.cls-81{fill:#534546;}.cls-82{fill:#544647;}.cls-83{fill:#554849;}.cls-84{fill:#56494a;}.cls-85,.cls-86{fill:#57494b;}.cls-87,.cls-88{fill:#594b4c;}.cls-89,.cls-90{fill:#5a4c4d;}.cls-91{fill:#5c4e4e;}.cls-92{fill:#5d4f4f;}.cls-93{fill:#5e5051;}.cls-94{fill:#605152;}.cls-95{fill:#615253;}.cls-96{fill:#615354;}.cls-97,.cls-98{fill:#645556;}.cls-99{fill:#645656;}.cls-100,.cls-101{fill:#665858;}.cls-102{fill:#675959;}.cls-103,.cls-104{fill:#695a5a;}.cls-105{fill:#6a5c5c;}.cls-106{fill:#6c5e5d;}.cls-107,.cls-108{fill:#6e5f5f;}.cls-109{fill:#6f6160;}.cls-110,.cls-111{fill:#716261;}.cls-112,.cls-113{fill:#726463;}.cls-114{fill:#746563;}.cls-115{fill:#756765;}.cls-116{fill:#756866;}.cls-117{fill:#776967;}.cls-118{fill:#786b69;}.cls-119,.cls-120{fill:#7a6c6a;}.cls-121{fill:#7b6d6a;}.cls-122{fill:#7c6e6c;}.cls-123,.cls-124{fill:#7e706d;}.cls-125{fill:#7f716f;}.cls-126{fill:#817370;}.cls-127{fill:#827471;}.cls-128,.cls-129{fill:#857673;}.cls-130{fill:#867875;}.cls-131{fill:#877a76;}.cls-132,.cls-133{fill:#887a77;}.cls-134,.cls-135{fill:#8a7c77;}.cls-136{fill:#8b7e79;}.cls-137,.cls-138{fill:#8c7f7b;}.cls-139{fill:#8d807c;}.cls-140{fill:#8f817c;}.cls-141{fill:#90827d;}.cls-142{fill:#948682;}.cls-143{fill:#958884;}.cls-144{fill:#988b86;}.cls-145{fill:#9b8e88;}.cls-146{fill:#9e918c;}.cls-147{fill:#a1948f;}.cls-148{fill:#a49891;}.cls-149{fill:#a89d95;}.cls-150{fill:#aba098;}.cls-151{fill:#ada29a;}.cls-152{fill:#b0a59e;}.cls-153{fill:#b2a7a1;}.cls-154{fill:#b4aba3;}.cls-155{fill:#b7aea5;}.cls-156{fill:#bab2aa;}.cls-157{fill:#bdb4ac;}.cls-158{fill:#c0b6af;}.cls-159{fill:#c3bab2;}.cls-160{fill:#c5bdb6;}.cls-161{fill:#c7c1b9;}.cls-162{fill:#cbc5bd;}.cls-163{fill:#cec7bf;}.cls-164{fill:#d0cac2;}.cls-165{fill:#d3cdc5;}.cls-166{fill:#d6cfca;}.cls-167{fill:#d9d2cd;}.cls-168{fill:#dad6cf;}.cls-169{fill:#ded9d3;}.cls-170{fill:#e0dbd5;}.cls-171{fill:#e2dfd9;}.cls-172{fill:#e4e0db;}.cls-173{fill:#e7e4e0;}.cls-174{fill:#ebe8e3;}.cls-175{fill:#edebe7;}.cls-176{fill:#f0eeea;}.cls-177{fill:#f2f0ee;}.cls-178{fill:#f4f2f0;}.cls-179{fill:#f7f5f4;}.cls-180{fill:#f9f8f7;}.cls-181{fill:#fafaf9;}.cls-182{fill:#fcfcfc;}.cls-183,.cls-187,.cls-188,.cls-189,.cls-190,.cls-191,.cls-192,.cls-193,.cls-194{fill:#fff;}.cls-184{clip-path:url(#clip-path-3);}.cls-185{fill:url(#Degradado_sin_nombre_2);}.cls-186{clip-path:url(#clip-path-4);}.cls-187{font-size:14.14px;}.cls-187,.cls-188,.cls-189,.cls-190,.cls-191,.cls-192,.cls-193,.cls-194{font-family:ArialMT, Arial;}.cls-188{font-size:12.4px;}.cls-189{font-size:11.44px;}.cls-190{font-size:14.39px;}.cls-191{font-size:13.49px;}.cls-192{font-size:14.5px;}.cls-193{font-size:14.1px;}.cls-194{font-size:12.31px;}.cls-195{clip-path:url(#clip-path-5);}.cls-196{clip-path:url(#clip-path-6);}.cls-197{clip-path:url(#clip-path-7);}.cls-198{clip-path:url(#clip-path-8);}</style><clipPath id="clip-path"><path class="cls-1" d="M48.28,27l8.8,5.19a20.11,20.11,0,0,1,19-9.8s15.13,1,17.9,18a14.4,14.4,0,0,1-.74,8.4l9.44,3.56s7-20.8-11-35.06c0,0-10.5-9.89-27.22-4.22,0,0-11.3,4.63-14.85,11.73,3.55-7.1-1.33,2.17-1.33,2.17"/></clipPath><linearGradient id="Degradado_sin_nombre" x1="102.39" y1="23.61" x2="49.37" y2="37.89" gradientUnits="userSpaceOnUse"><stop offset="0"/><stop offset="0.09" stop-color="#080808"/><stop offset="0.22" stop-color="#1f1f1f"/><stop offset="0.39" stop-color="#434343"/><stop offset="0.58" stop-color="#767676"/><stop offset="0.79" stop-color="#b7b7b7"/><stop offset="1" stop-color="#fff"/></linearGradient><clipPath id="clip-path-2"><path class="cls-1" d="M221.37,42.51l9.9,1.47s.88-11.37,14.17-16.59l-.89-11s-10.52,1-19,14.16c0,0-3.43,6.7-3.9,10.44.47-3.74-.24,1.48-.24,1.48"/></clipPath><clipPath id="clip-path-3"><path class="cls-1" d="M30,200.06l10.28.42S37,183.8,49.68,177.58c0,0,14.13-7.08,24.41,3.69,0,0,8.54,6.85,4.5,20.5,0,0-4.92,15-20.62,14.06l-4.81,10.22S74.62,230,84.48,212.88c0,0,10.21-16.2,1.48-32.43,0,0-8.41-17.34-27.48-16.43,0,0-17.11-.88-25.14,16.78,0,0-4.4,5.74-3.54,18-.86-12.25.16,1.27.16,1.27"/></clipPath><linearGradient id="Degradado_sin_nombre_2" x1="85.67" y1="179.54" x2="36.1" y2="214.85" gradientUnits="userSpaceOnUse"><stop offset="0"/><stop offset="0.1" stop-color="#050505"/><stop offset="0.23" stop-color="#131313"/><stop offset="0.36" stop-color="#2b2b2b"/><stop offset="0.5" stop-color="#4d4d4d"/><stop offset="0.65" stop-color="#787878"/><stop offset="0.8" stop-color="#adadad"/><stop offset="0.95" stop-color="#eaeaea"/><stop offset="1" stop-color="#fff"/></linearGradient><clipPath id="clip-path-4"><path class="cls-1" d="M231.51,189.15s-1.08-14,14.33-19.68c0,0,9.83-4.83,20.82,6.34,0,0,12.43,14-2.62,29.3,0,0-14.92,12.12-28.62-3.76l-11.35-.88s3.24,15.73,23.15,19.76c0,0,16.21,2.54,26-9.47,0,0,9.51-9.08,8-25.17,0,0-.88-17.31-17.5-25.08,0,0-15.79-7.83-30,3.35,0,0-10.1,6.46-12.3,21.64,0-.11,10.07,3.65,10.07,3.65"/></clipPath><clipPath id="clip-path-5"><rect class="cls-2" x="16.24" y="240.45" width="22.97" height="22.41"/></clipPath><clipPath id="clip-path-6"><rect class="cls-2" x="191.44" y="239.36" width="21.67" height="21.67"/></clipPath><clipPath id="clip-path-7"><polygon class="cls-1" points="17.16 96.25 38.55 96.3 38.63 117.09 17.14 117.08 17.16 96.25"/></clipPath><clipPath id="clip-path-8"><rect class="cls-2" x="194.6" y="94.82" width="23.55" height="23.55"/></clipPath></defs><title>habilidad</title><g class="cls-3"><rect class="cls-4" x="48.28" y="7.42" width="61.47" height="44.95"/></g><path class="cls-5" d="M47.28,27l8.8,5.19a20.11,20.11,0,0,1,19-9.8s15.13,1,17.9,18a14.4,14.4,0,0,1-.74,8.4l9.44,3.56s7-20.8-11-35.06c0,0-10.5-9.89-27.22-4.22,0,0-11.3,4.63-14.85,11.73C52.16,17.72,47.28,27,47.28,27Z"/><g class="cls-6"><rect x="244.47" y="13.12" width="3.57" height="23.14" transform="translate(11.08 101.77) rotate(-23.87)"/><polygon class="cls-7" points="249.35 35.98 249.21 36.03 239.85 14.87 239.98 14.81 249.35 35.98"/><rect class="cls-8" x="244.44" y="13.89" width="0.14" height="23.14" transform="translate(10.55 100.93) rotate(-23.82)"/><rect class="cls-8" x="244.35" y="13.93" width="0.14" height="23.14" transform="translate(10.62 101.18) rotate(-23.89)"/><rect class="cls-9" x="244.26" y="13.97" width="0.14" height="23.14" transform="translate(10.5 100.86) rotate(-23.82)"/><rect class="cls-9" x="244.17" y="14.01" width="0.14" height="23.14" transform="translate(10.63 101.31) rotate(-23.94)"/><rect class="cls-10" x="244.08" y="14.05" width="0.14" height="23.14" transform="translate(10.65 101.39) rotate(-23.97)"/><rect class="cls-10" x="244" y="14.09" width="0.14" height="23.14" transform="translate(10.47 100.89) rotate(-23.85)"/><rect class="cls-11" x="243.91" y="14.12" width="0.14" height="23.14" transform="translate(10.6 101.32) rotate(-23.97)"/><rect class="cls-11" x="243.82" y="14.16" width="0.14" height="23.14" transform="translate(10.4 100.75) rotate(-23.83)"/><rect class="cls-12" x="243.73" y="14.2" width="0.14" height="23.14" transform="translate(10.41 100.81) rotate(-23.86)"/><rect class="cls-12" x="243.64" y="14.24" width="0.14" height="23.14" transform="translate(10.53 101.23) rotate(-23.97)"/><rect class="cls-13" x="243.55" y="14.28" width="0.14" height="23.14" transform="translate(10.33 100.65) rotate(-23.83)"/><rect class="cls-13" x="243.47" y="14.32" width="0.14" height="23.14" transform="matrix(0.91, -0.41, 0.41, 0.91, 10.42, 100.98)"/><rect class="cls-14" x="243.38" y="14.36" width="0.14" height="23.14" transform="translate(10.43 101.04) rotate(-23.95)"/><rect class="cls-14" x="243.29" y="14.4" width="0.14" height="23.14" transform="translate(10.29 100.65) rotate(-23.86)"/><rect class="cls-15" x="243.2" y="14.44" width="0.14" height="23.14" transform="translate(10.4 101.04) rotate(-23.96)"/><polygon class="cls-16" points="247.94 36.6 247.8 36.66 238.44 15.49 238.57 15.44 247.94 36.6"/><rect class="cls-15" x="243.03" y="14.51" width="0.14" height="23.14" transform="translate(10.21 100.53) rotate(-23.85)"/><polygon class="cls-17" points="247.76 36.68 247.63 36.74 238.26 15.57 238.39 15.52 247.76 36.68"/><rect class="cls-18" x="242.85" y="14.59" width="0.14" height="23.14" transform="translate(10.17 100.47) rotate(-23.85)"/><rect class="cls-19" x="242.76" y="14.63" width="0.14" height="23.14" transform="translate(10.12 100.36) rotate(-23.83)"/><polygon class="cls-20" points="247.49 36.79 247.36 36.85 238 15.69 238.13 15.63 247.49 36.79"/><rect class="cls-21" x="242.58" y="14.71" width="0.14" height="23.14" transform="translate(10.07 100.28) rotate(-23.83)"/><rect class="cls-21" x="242.5" y="14.75" width="0.14" height="23.14" transform="translate(10.15 100.59) rotate(-23.91)"/><polygon class="cls-22" points="247.23 36.91 247.1 36.97 237.73 15.81 237.86 15.75 247.23 36.91"/><rect class="cls-23" x="242.32" y="14.83" width="0.14" height="23.14" transform="translate(9.98 100.13) rotate(-23.82)"/><rect class="cls-24" x="242.23" y="14.87" width="0.14" height="23.14" transform="translate(10.08 100.49) rotate(-23.91)"/><rect class="cls-24" x="242.14" y="14.9" width="0.14" height="23.14" transform="translate(9.94 100.07) rotate(-23.82)"/><polygon class="cls-25" points="246.88 37.07 246.75 37.13 237.38 15.96 237.51 15.9 246.88 37.07"/><rect class="cls-26" x="241.97" y="14.98" width="0.14" height="23.14" transform="translate(9.98 100.3) rotate(-23.89)"/><rect class="cls-27" x="241.88" y="15.02" width="0.14" height="23.14" transform="translate(9.85 99.91) rotate(-23.8)"/><rect class="cls-27" x="241.79" y="15.06" width="0.14" height="23.14" transform="translate(9.94 100.24) rotate(-23.89)"/><rect class="cls-28" x="241.7" y="15.1" width="0.14" height="23.14" transform="translate(9.82 99.91) rotate(-23.82)"/><polygon class="cls-29" points="246.44 37.26 246.3 37.32 236.94 16.16 237.07 16.1 246.44 37.26"/><rect class="cls-28" x="241.53" y="15.18" width="0.14" height="23.14" transform="translate(9.92 100.29) rotate(-23.93)"/><polygon class="cls-30" points="246.26 37.34 246.13 37.4 236.76 16.24 236.89 16.18 246.26 37.34"/><polygon class="cls-30" points="246.17 37.38 246.04 37.44 236.67 16.27 236.81 16.22 246.17 37.38"/><rect class="cls-31" x="241.26" y="15.3" width="0.14" height="23.14" transform="translate(9.77 99.95) rotate(-23.87)"/><polygon class="cls-32" points="246 37.46 245.86 37.52 236.5 16.35 236.63 16.3 246 37.46"/><rect class="cls-33" x="241.09" y="15.37" width="0.14" height="23.14" transform="translate(9.85 100.29) rotate(-23.97)"/><rect class="cls-33" x="241" y="15.41" width="0.14" height="23.14" transform="translate(9.68 99.79) rotate(-23.85)"/><polygon class="cls-34" points="245.73 37.57 245.6 37.63 236.23 16.47 236.37 16.41 245.73 37.57"/><rect class="cls-35" x="240.82" y="15.49" width="0.14" height="23.14" transform="translate(9.74 100.08) rotate(-23.94)"/><rect class="cls-36" x="240.73" y="15.53" width="0.14" height="23.14" transform="translate(9.61 99.71) rotate(-23.86)"/><rect class="cls-36" x="240.65" y="15.57" width="0.14" height="23.14" transform="translate(9.58 99.66) rotate(-23.85)"/><rect class="cls-37" x="240.56" y="15.61" width="0.14" height="23.14" transform="matrix(0.91, -0.41, 0.41, 0.91, 9.65, 99.91)"/><rect class="cls-37" x="240.47" y="15.65" width="0.14" height="23.14" transform="translate(9.54 99.61) rotate(-23.86)"/><rect class="cls-38" x="240.38" y="15.69" width="0.14" height="23.14" transform="translate(9.63 99.94) rotate(-23.95)"/><rect class="cls-39" x="240.29" y="15.72" width="0.14" height="23.14" transform="translate(9.64 99.99) rotate(-23.97)"/><rect class="cls-40" x="240.2" y="15.76" width="0.14" height="23.14" transform="translate(9.47 99.52) rotate(-23.86)"/><polygon class="cls-41" points="244.94 37.92 244.81 37.98 235.44 16.82 235.57 16.76 244.94 37.92"/><rect class="cls-40" x="240.03" y="15.84" width="0.14" height="23.14" transform="translate(9.43 99.45) rotate(-23.86)"/><rect class="cls-42" x="239.94" y="15.88" width="0.14" height="23.14" transform="translate(9.4 99.42) rotate(-23.86)"/><rect class="cls-42" x="239.85" y="15.92" width="0.14" height="23.14" transform="matrix(0.91, -0.41, 0.41, 0.91, 9.46, 99.65)"/><rect class="cls-43" x="239.76" y="15.96" width="0.14" height="23.14" transform="translate(9.36 99.35) rotate(-23.86)"/><polygon class="cls-44" points="244.5 38.12 244.37 38.18 235 17.02 235.13 16.96 244.5 38.12"/><polygon class="cls-45" points="244.41 38.16 244.28 38.22 234.91 17.06 235.04 17 244.41 38.16"/><rect class="cls-46" x="239.5" y="16.08" width="0.14" height="23.14" transform="translate(9.29 99.26) rotate(-23.86)"/><rect class="cls-47" x="239.41" y="16.11" width="0.14" height="23.14" transform="translate(9.33 99.44) rotate(-23.91)"/><rect class="cls-47" x="239.32" y="16.15" width="0.14" height="23.14" transform="translate(9.18 99) rotate(-23.81)"/><rect class="cls-48" x="239.24" y="16.19" width="0.14" height="23.14" transform="translate(9.15 98.94) rotate(-23.8)"/><rect class="cls-48" x="239.15" y="16.23" width="0.14" height="23.14" transform="translate(9.24 99.29) rotate(-23.9)"/><rect class="cls-49" x="239.06" y="16.27" width="0.14" height="23.14" transform="translate(9.1 98.88) rotate(-23.8)"/><rect class="cls-49" x="238.97" y="16.31" width="0.14" height="23.14" transform="translate(9.22 99.28) rotate(-23.91)"/><rect class="cls-50" x="238.88" y="16.35" width="0.14" height="23.14" transform="translate(9.19 99.26) rotate(-23.91)"/><rect class="cls-50" x="238.79" y="16.39" width="0.14" height="23.14" transform="translate(9.06 98.86) rotate(-23.82)"/><rect class="cls-50" x="238.71" y="16.43" width="0.14" height="23.14" transform="translate(9.15 99.19) rotate(-23.91)"/><polygon class="cls-51" points="243.44 38.59 243.31 38.65 233.94 17.48 234.07 17.43 243.44 38.59"/><polygon class="cls-51" points="243.35 38.63 243.22 38.69 233.85 17.52 233.99 17.46 243.35 38.63"/><rect class="cls-52" x="238.44" y="16.54" width="0.14" height="23.14" transform="translate(9.08 99.1) rotate(-23.91)"/><rect class="cls-52" x="238.35" y="16.58" width="0.14" height="23.14" transform="translate(8.94 98.68) rotate(-23.82)"/><rect class="cls-53" x="238.27" y="16.62" width="0.14" height="23.14" transform="translate(9.03 99.03) rotate(-23.91)"/><rect class="cls-53" x="238.18" y="16.66" width="0.14" height="23.14" transform="translate(9 98.97) rotate(-23.91)"/><polygon class="cls-54" points="242.91 38.82 242.78 38.88 233.41 17.72 233.54 17.66 242.91 38.82"/><rect class="cls-55" x="238" y="16.74" width="0.14" height="23.14" transform="translate(8.97 98.95) rotate(-23.92)"/><rect class="cls-56" x="237.91" y="16.78" width="0.14" height="23.14" transform="translate(8.86 98.66) rotate(-23.85)"/><rect class="cls-56" x="237.83" y="16.82" width="0.14" height="23.14" transform="translate(8.84 98.62) rotate(-23.85)"/><rect class="cls-57" x="237.74" y="16.86" width="0.14" height="23.14" transform="translate(8.96 99.05) rotate(-23.97)"/><rect class="cls-57" x="237.65" y="16.89" width="0.14" height="23.14" transform="translate(8.79 98.56) rotate(-23.85)"/><rect class="cls-58" x="237.56" y="16.93" width="0.14" height="23.14" transform="translate(8.77 98.55) rotate(-23.86)"/><rect class="cls-58" x="237.47" y="16.97" width="0.14" height="23.14" transform="translate(8.88 98.94) rotate(-23.96)"/><rect class="cls-59" x="237.38" y="17.01" width="0.14" height="23.14" transform="translate(8.7 98.39) rotate(-23.83)"/><rect class="cls-59" x="237.3" y="17.05" width="0.14" height="23.14" transform="translate(8.78 98.69) rotate(-23.92)"/><rect class="cls-59" x="237.21" y="17.09" width="0.14" height="23.14" transform="translate(8.65 98.33) rotate(-23.83)"/><rect class="cls-60" x="237.12" y="17.13" width="0.14" height="23.14" transform="translate(8.66 98.38) rotate(-23.86)"/><rect class="cls-60" x="237.03" y="17.17" width="0.14" height="23.14" transform="translate(8.77 98.79) rotate(-23.97)"/><polygon class="cls-61" points="241.76 39.33 241.63 39.39 232.27 18.23 232.4 18.17 241.76 39.33"/><rect class="cls-62" x="236.86" y="17.25" width="0.14" height="23.14" transform="translate(8.59 98.29) rotate(-23.86)"/><rect class="cls-63" x="236.77" y="17.28" width="0.14" height="23.14" transform="translate(8.7 98.7) rotate(-23.97)"/><rect class="cls-63" x="236.68" y="17.32" width="0.14" height="23.14" transform="translate(8.54 98.22) rotate(-23.86)"/><polygon class="cls-64" points="241.41 39.49 241.28 39.54 231.91 18.38 232.05 18.32 241.41 39.49"/><rect class="cls-65" x="236.5" y="17.4" width="0.14" height="23.14" transform="translate(8.49 98.16) rotate(-23.86)"/><rect class="cls-66" x="236.41" y="17.44" width="0.14" height="23.14" transform="translate(8.44 98.04) rotate(-23.83)"/><rect class="cls-66" x="236.33" y="17.48" width="0.14" height="23.14" transform="translate(8.52 98.34) rotate(-23.92)"/><rect class="cls-67" x="236.24" y="17.52" width="0.14" height="23.14" transform="translate(8.38 97.93) rotate(-23.82)"/><rect class="cls-67" x="236.15" y="17.56" width="0.14" height="23.14" transform="translate(8.34 97.83) rotate(-23.81)"/><polygon class="cls-68" points="240.88 39.72 240.75 39.78 231.38 18.62 231.52 18.56 240.88 39.72"/><rect class="cls-69" x="235.97" y="17.64" width="0.14" height="23.14" transform="translate(8.27 97.68) rotate(-23.79)"/><rect class="cls-70" x="235.89" y="17.67" width="0.14" height="23.14" transform="translate(8.35 97.98) rotate(-23.87)"/><polygon class="cls-71" points="240.62 39.84 240.49 39.9 231.12 18.73 231.25 18.68 240.62 39.84"/><rect class="cls-70" x="235.71" y="17.75" width="0.14" height="23.14" transform="translate(8.22 97.65) rotate(-23.8)"/><polygon class="cls-72" points="240.44 39.91 240.31 39.97 230.94 18.81 231.08 18.75 240.44 39.91"/><polygon class="cls-72" points="240.35 39.95 240.22 40.01 230.86 18.85 230.99 18.79 240.35 39.95"/><polygon class="cls-73" points="240.27 39.99 240.13 40.05 230.77 18.89 230.9 18.83 240.27 39.99"/><rect class="cls-74" x="235.36" y="17.91" width="0.14" height="23.14" transform="translate(8.26 97.96) rotate(-23.91)"/><polygon class="cls-75" points="240.09 40.07 239.96 40.13 230.59 18.97 230.72 18.91 240.09 40.07"/><rect class="cls-76" x="235.18" y="17.99" width="0.14" height="23.14" transform="translate(8.19 97.81) rotate(-23.89)"/><rect class="cls-77" x="235.09" y="18.03" width="0.14" height="23.14" transform="translate(8.14 97.69) rotate(-23.87)"/><polygon class="cls-78" points="239.82 40.19 239.69 40.25 230.33 19.08 230.46 19.03 239.82 40.19"/><rect class="cls-79" x="234.92" y="18.1" width="0.14" height="23.14" transform="translate(8.2 98) rotate(-23.96)"/><rect class="cls-79" x="234.83" y="18.14" width="0.14" height="23.14" transform="translate(8.05 97.53) rotate(-23.85)"/><polygon class="cls-80" points="239.56 40.3 239.43 40.36 230.06 19.2 230.19 19.14 239.56 40.3"/><rect class="cls-81" x="234.65" y="18.22" width="0.14" height="23.14" transform="translate(8.13 97.9) rotate(-23.96)"/><rect class="cls-82" x="234.56" y="18.26" width="0.14" height="23.14" transform="translate(7.98 97.43) rotate(-23.85)"/><rect class="cls-82" x="234.48" y="18.3" width="0.14" height="23.14" transform="translate(8.08 97.83) rotate(-23.96)"/><rect class="cls-83" x="234.39" y="18.34" width="0.14" height="23.14" transform="matrix(0.91, -0.41, 0.41, 0.91, 8.01, 97.65)"/><rect class="cls-83" x="234.3" y="18.38" width="0.14" height="23.14" transform="translate(7.91 97.33) rotate(-23.85)"/><rect class="cls-83" x="234.21" y="18.42" width="0.14" height="23.14" transform="translate(7.99 97.67) rotate(-23.95)"/><rect class="cls-84" x="234.12" y="18.46" width="0.14" height="23.14" transform="translate(7.86 97.27) rotate(-23.85)"/><rect class="cls-84" x="234.03" y="18.49" width="0.14" height="23.14" transform="translate(7.84 97.25) rotate(-23.86)"/><polygon class="cls-85" points="238.77 40.66 238.64 40.72 229.27 19.55 229.4 19.49 238.77 40.66"/><rect class="cls-86" x="233.86" y="18.57" width="0.14" height="23.14" transform="translate(7.8 97.19) rotate(-23.86)"/><polygon class="cls-87" points="238.59 40.73 238.46 40.79 229.09 19.63 229.23 19.57 238.59 40.73"/><rect class="cls-88" x="233.68" y="18.65" width="0.14" height="23.14" transform="matrix(0.91, -0.41, 0.41, 0.91, 7.83, 97.39)"/><rect class="cls-89" x="233.59" y="18.69" width="0.14" height="23.14" transform="translate(7.73 97.09) rotate(-23.86)"/><polygon class="cls-90" points="238.33 40.85 238.19 40.91 228.83 19.75 228.96 19.69 238.33 40.85"/><rect class="cls-91" x="233.42" y="18.77" width="0.14" height="23.14" transform="translate(7.68 97.03) rotate(-23.86)"/><rect class="cls-91" x="233.33" y="18.81" width="0.14" height="23.14" transform="translate(7.66 97) rotate(-23.86)"/><rect class="cls-92" x="233.24" y="18.85" width="0.14" height="23.14" transform="translate(7.68 97.12) rotate(-23.9)"/><rect class="cls-92" x="233.15" y="18.88" width="0.14" height="23.14" transform="translate(7.55 96.74) rotate(-23.81)"/><rect class="cls-93" x="233.06" y="18.92" width="0.14" height="23.14" transform="translate(7.66 97.14) rotate(-23.92)"/><rect class="cls-93" x="232.98" y="18.96" width="0.14" height="23.14" transform="translate(7.61 97.02) rotate(-23.9)"/><rect class="cls-94" x="232.89" y="19" width="0.14" height="23.14" transform="translate(7.5 96.7) rotate(-23.82)"/><rect class="cls-94" x="232.8" y="19.04" width="0.14" height="23.14" transform="translate(7.56 96.96) rotate(-23.9)"/><rect class="cls-94" x="232.71" y="19.08" width="0.14" height="23.14" transform="translate(7.45 96.62) rotate(-23.82)"/><rect class="cls-95" x="232.62" y="19.12" width="0.14" height="23.14" transform="translate(7.41 96.53) rotate(-23.81)"/><rect class="cls-95" x="232.54" y="19.16" width="0.14" height="23.14" transform="matrix(0.91, -0.4, 0.4, 0.91, 7.46, 96.76)"/><rect class="cls-96" x="232.45" y="19.2" width="0.14" height="23.14" transform="translate(7.36 96.47) rotate(-23.81)"/><rect class="cls-96" x="232.36" y="19.24" width="0.14" height="23.14" transform="translate(7.34 96.44) rotate(-23.81)"/><rect class="cls-97" x="232.27" y="19.27" width="0.14" height="23.14" transform="translate(7.46 96.9) rotate(-23.93)"/><polygon class="cls-98" points="237 41.44 236.87 41.49 227.51 20.33 227.64 20.27 237 41.44"/><rect class="cls-99" x="232.1" y="19.35" width="0.14" height="23.14" transform="translate(7.41 96.83) rotate(-23.93)"/><rect class="cls-99" x="232.01" y="19.39" width="0.14" height="23.14" transform="translate(7.22 96.22) rotate(-23.78)"/><polygon class="cls-100" points="236.74 41.55 236.61 41.61 227.24 20.45 227.37 20.39 236.74 41.55"/><rect class="cls-101" x="231.83" y="19.47" width="0.14" height="23.14" transform="matrix(0.91, -0.4, 0.4, 0.91, 7.28, 96.5)"/><rect class="cls-102" x="231.74" y="19.51" width="0.14" height="23.14" transform="translate(7.23 96.39) rotate(-23.85)"/><rect class="cls-102" x="231.65" y="19.55" width="0.14" height="23.14" transform="translate(7.21 96.37) rotate(-23.85)"/><rect class="cls-103" x="231.57" y="19.59" width="0.14" height="23.14" transform="translate(7.28 96.68) rotate(-23.94)"/><polygon class="cls-104" points="236.3 41.75 236.17 41.81 226.8 20.64 226.93 20.59 236.3 41.75"/><rect class="cls-105" x="231.39" y="19.66" width="0.14" height="23.14" transform="translate(7.26 96.7) rotate(-23.96)"/><rect class="cls-105" x="231.3" y="19.7" width="0.14" height="23.14" transform="translate(7.12 96.24) rotate(-23.85)"/><rect class="cls-105" x="231.21" y="19.74" width="0.14" height="23.14" transform="translate(7.09 96.2) rotate(-23.85)"/><rect class="cls-106" x="231.13" y="19.78" width="0.14" height="23.14" transform="translate(7.15 96.44) rotate(-23.92)"/><rect class="cls-106" x="231.04" y="19.82" width="0.14" height="23.14" transform="translate(7.02 96.06) rotate(-23.83)"/><rect class="cls-106" x="230.95" y="19.86" width="0.14" height="23.14" transform="translate(7.02 96.11) rotate(-23.85)"/><rect class="cls-106" x="230.86" y="19.9" width="0.14" height="23.14" transform="translate(7.13 96.51) rotate(-23.96)"/><rect class="cls-107" x="230.77" y="19.94" width="0.14" height="23.14" transform="translate(6.95 95.96) rotate(-23.83)"/><polygon class="cls-108" points="235.51 42.1 235.37 42.16 226.01 21 226.14 20.94 235.51 42.1"/><rect class="cls-109" x="230.6" y="20.02" width="0.14" height="23.14" transform="translate(6.91 95.9) rotate(-23.83)"/><rect class="cls-109" x="230.51" y="20.05" width="0.14" height="23.14" transform="translate(6.91 95.95) rotate(-23.85)"/><polygon class="cls-110" points="235.24 42.22 235.11 42.27 225.74 21.11 225.88 21.05 235.24 42.22"/><rect class="cls-111" x="230.33" y="20.13" width="0.14" height="23.14" transform="translate(6.86 95.89) rotate(-23.85)"/><rect class="cls-112" x="230.24" y="20.17" width="0.14" height="23.14" transform="translate(6.83 95.84) rotate(-23.85)"/><polygon class="cls-113" points="234.98 42.33 234.84 42.39 225.48 21.23 225.61 21.17 234.98 42.33"/><polygon class="cls-114" points="234.89 42.37 234.76 42.43 225.39 21.27 225.52 21.21 234.89 42.37"/><polygon class="cls-114" points="234.8 42.41 234.67 42.47 225.3 21.31 225.44 21.25 234.8 42.41"/><rect class="cls-115" x="229.89" y="20.33" width="0.14" height="23.14" transform="translate(6.81 95.97) rotate(-23.92)"/><rect class="cls-115" x="229.8" y="20.37" width="0.14" height="23.14" transform="translate(6.64 95.42) rotate(-23.78)"/><rect class="cls-115" x="229.72" y="20.41" width="0.14" height="23.14" transform="translate(6.77 95.9) rotate(-23.92)"/><rect class="cls-116" x="229.63" y="20.44" width="0.14" height="23.14" transform="translate(6.6 95.35) rotate(-23.78)"/><rect class="cls-116" x="229.54" y="20.48" width="0.14" height="23.14" transform="translate(6.61 95.46) rotate(-23.82)"/><rect class="cls-117" x="229.45" y="20.52" width="0.14" height="23.14" transform="translate(6.7 95.8) rotate(-23.92)"/><rect class="cls-117" x="229.36" y="20.56" width="0.14" height="23.14" transform="translate(6.57 95.4) rotate(-23.82)"/><rect class="cls-118" x="229.27" y="20.6" width="0.14" height="23.14" transform="matrix(0.91, -0.4, 0.4, 0.91, 6.6, 95.57)"/><rect class="cls-118" x="229.19" y="20.64" width="0.14" height="23.14" transform="translate(6.63 95.71) rotate(-23.92)"/><polygon class="cls-119" points="233.92 42.8 233.79 42.86 224.42 21.7 224.55 21.64 233.92 42.8"/><rect class="cls-120" x="229.01" y="20.72" width="0.14" height="23.14" transform="translate(6.55 95.56) rotate(-23.89)"/><rect class="cls-121" x="228.92" y="20.76" width="0.14" height="23.14" transform="translate(6.45 95.24) rotate(-23.82)"/><rect class="cls-121" x="228.83" y="20.8" width="0.14" height="23.14" transform="translate(6.39 95.06) rotate(-23.78)"/><rect class="cls-122" x="228.75" y="20.83" width="0.14" height="23.14" transform="translate(6.52 95.6) rotate(-23.93)"/><rect class="cls-122" x="228.66" y="20.87" width="0.14" height="23.14" transform="translate(6.42 95.27) rotate(-23.85)"/><rect class="cls-123" x="228.57" y="20.91" width="0.14" height="23.14" transform="translate(6.46 95.49) rotate(-23.92)"/><polygon class="cls-124" points="233.3 43.08 233.17 43.13 223.8 21.97 223.94 21.91 233.3 43.08"/><rect class="cls-125" x="228.39" y="20.99" width="0.14" height="23.14" transform="translate(6.35 95.17) rotate(-23.85)"/><rect class="cls-125" x="228.3" y="21.03" width="0.14" height="23.14" transform="translate(6.45 95.57) rotate(-23.96)"/><rect class="cls-125" x="228.22" y="21.07" width="0.14" height="23.14" transform="translate(6.27 95.02) rotate(-23.83)"/><rect class="cls-126" x="228.13" y="21.11" width="0.14" height="23.14" transform="translate(6.28 95.08) rotate(-23.85)"/><rect class="cls-126" x="228.04" y="21.15" width="0.14" height="23.14" transform="translate(6.35 95.38) rotate(-23.94)"/><rect class="cls-127" x="227.95" y="21.19" width="0.14" height="23.14" transform="translate(6.23 95.01) rotate(-23.85)"/><rect class="cls-127" x="227.86" y="21.22" width="0.14" height="23.14" transform="translate(6.21 94.97) rotate(-23.85)"/><rect class="cls-127" x="227.78" y="21.26" width="0.14" height="23.14" transform="translate(6.3 95.38) rotate(-23.96)"/><rect class="cls-127" x="227.69" y="21.3" width="0.14" height="23.14" transform="translate(6.16 94.92) rotate(-23.85)"/><rect class="cls-128" x="227.6" y="21.34" width="0.14" height="23.14" transform="translate(6.23 95.23) rotate(-23.94)"/><polygon class="cls-129" points="232.33 43.5 232.2 43.56 222.84 22.4 222.97 22.34 232.33 43.5"/><rect class="cls-130" x="227.42" y="21.42" width="0.14" height="23.14" transform="translate(6.09 94.82) rotate(-23.85)"/><rect class="cls-130" x="227.34" y="21.46" width="0.14" height="23.14" transform="translate(6.19 95.22) rotate(-23.96)"/><rect class="cls-131" x="227.25" y="21.5" width="0.14" height="23.14" transform="translate(6.04 94.76) rotate(-23.85)"/><rect class="cls-131" x="227.16" y="21.54" width="0.14" height="23.14" transform="translate(6.02 94.72) rotate(-23.85)"/><polygon class="cls-132" points="231.89 43.7 231.76 43.76 222.39 22.59 222.53 22.54 231.89 43.7"/><rect class="cls-133" x="226.98" y="21.62" width="0.14" height="23.14" transform="translate(5.92 94.47) rotate(-23.81)"/><rect class="cls-133" x="226.89" y="21.65" width="0.14" height="23.14" transform="translate(6.02 94.87) rotate(-23.92)"/><rect class="cls-134" x="226.81" y="21.69" width="0.14" height="23.14" transform="translate(5.89 94.47) rotate(-23.82)"/><polygon class="cls-135" points="231.54 43.85 231.41 43.91 222.04 22.75 222.17 22.69 231.54 43.85"/><rect class="cls-136" x="226.63" y="21.77" width="0.14" height="23.14" transform="translate(5.94 94.75) rotate(-23.91)"/><rect class="cls-136" x="226.54" y="21.81" width="0.14" height="23.14" transform="translate(5.81 94.32) rotate(-23.81)"/><polygon class="cls-137" points="231.28 43.97 231.14 44.03 221.78 22.87 221.91 22.81 231.28 43.97"/><rect class="cls-138" x="226.37" y="21.89" width="0.14" height="23.14" transform="matrix(0.91, -0.4, 0.4, 0.91, 5.83, 94.5)"/><rect class="cls-139" x="226.28" y="21.93" width="0.14" height="23.14" transform="translate(5.74 94.21) rotate(-23.81)"/><rect class="cls-139" x="226.19" y="21.97" width="0.14" height="23.14" transform="translate(5.83 94.59) rotate(-23.91)"/><rect class="cls-140" x="226.1" y="22.01" width="0.14" height="23.14" transform="translate(5.69 94.15) rotate(-23.81)"/><rect class="cls-140" x="226.01" y="22.04" width="0.14" height="23.14" transform="translate(5.68 94.18) rotate(-23.82)"/><rect class="cls-141" x="225.92" y="22.08" width="0.14" height="23.14" transform="translate(5.76 94.51) rotate(-23.92)"/><polygon class="cls-142" points="230.66 44.24 230.53 44.3 221.16 23.14 221.29 23.08 230.66 44.24"/><polygon class="cls-143" points="230.57 44.28 230.44 44.34 221.07 23.18 221.2 23.12 230.57 44.28"/><rect class="cls-144" x="225.66" y="22.2" width="0.14" height="23.14" transform="matrix(0.91, -0.4, 0.4, 0.91, 5.64, 94.24)"/><rect class="cls-145" x="225.57" y="22.24" width="0.14" height="23.14" transform="translate(5.62 94.2) rotate(-23.87)"/><rect class="cls-146" x="225.48" y="22.28" width="0.14" height="23.14" transform="translate(5.7 94.53) rotate(-23.96)"/><rect class="cls-147" x="225.4" y="22.32" width="0.14" height="23.14" transform="translate(5.65 94.41) rotate(-23.94)"/><polygon class="cls-148" points="230.13 44.48 230 44.54 220.63 23.38 220.76 23.32 230.13 44.48"/><rect class="cls-149" x="225.22" y="22.4" width="0.14" height="23.14" transform="translate(5.6 94.34) rotate(-23.94)"/><rect class="cls-150" x="225.13" y="22.43" width="0.14" height="23.14" transform="translate(5.49 93.98) rotate(-23.85)"/><rect class="cls-151" x="225.04" y="22.47" width="0.14" height="23.14" transform="translate(5.46 93.94) rotate(-23.85)"/><rect class="cls-152" x="224.96" y="22.51" width="0.14" height="23.14" transform="translate(5.51 94.17) rotate(-23.92)"/><rect class="cls-153" x="224.87" y="22.55" width="0.14" height="23.14" transform="translate(5.41 93.87) rotate(-23.85)"/><rect class="cls-154" x="224.78" y="22.59" width="0.14" height="23.14" transform="translate(5.51 94.27) rotate(-23.96)"/><rect class="cls-155" x="224.69" y="22.63" width="0.14" height="23.14" transform="translate(5.48 94.23) rotate(-23.96)"/><rect class="cls-156" x="224.6" y="22.67" width="0.14" height="23.14" transform="translate(5.32 93.7) rotate(-23.83)"/><polygon class="cls-157" points="229.34 44.83 229.2 44.89 219.84 23.73 219.97 23.67 229.34 44.83"/><rect class="cls-158" x="224.43" y="22.75" width="0.14" height="23.14" transform="translate(5.28 93.64) rotate(-23.83)"/><rect class="cls-159" x="224.34" y="22.79" width="0.14" height="23.14" transform="translate(5.28 93.69) rotate(-23.85)"/><rect class="cls-160" x="224.25" y="22.82" width="0.14" height="23.14" transform="translate(5.32 93.91) rotate(-23.92)"/><rect class="cls-161" x="224.16" y="22.86" width="0.14" height="23.14" transform="translate(5.23 93.62) rotate(-23.85)"/><polygon class="cls-162" points="228.9 45.03 228.76 45.08 219.4 23.92 219.53 23.86 228.9 45.03"/><rect class="cls-163" x="223.99" y="22.94" width="0.14" height="23.14" transform="translate(5.3 93.98) rotate(-23.96)"/><rect class="cls-164" x="223.9" y="22.98" width="0.14" height="23.14" transform="translate(5.12 93.4) rotate(-23.82)"/><rect class="cls-165" x="223.81" y="23.02" width="0.14" height="23.14" transform="translate(5.2 93.73) rotate(-23.92)"/><rect class="cls-166" x="223.72" y="23.06" width="0.14" height="23.14" transform="translate(5.06 93.28) rotate(-23.81)"/><rect class="cls-167" x="223.63" y="23.1" width="0.14" height="23.14" transform="translate(5.02 93.16) rotate(-23.78)"/><rect class="cls-168" x="223.54" y="23.14" width="0.14" height="23.14" transform="translate(5.13 93.63) rotate(-23.92)"/><rect class="cls-169" x="223.46" y="23.18" width="0.14" height="23.14" transform="translate(4.99 93.16) rotate(-23.8)"/><rect class="cls-170" x="223.37" y="23.21" width="0.14" height="23.14" transform="translate(5.08 93.57) rotate(-23.92)"/><polygon class="cls-171" points="228.1 45.38 227.97 45.44 218.6 24.27 218.74 24.21 228.1 45.38"/><rect class="cls-172" x="223.19" y="23.29" width="0.14" height="23.14" transform="translate(4.9 93) rotate(-23.78)"/><rect class="cls-173" x="223.1" y="23.33" width="0.14" height="23.14" transform="matrix(0.91, -0.4, 0.4, 0.91, 4.97, 93.3)"/><rect class="cls-174" x="223.02" y="23.37" width="0.14" height="23.14" transform="translate(4.88 93.02) rotate(-23.81)"/><polygon class="cls-175" points="227.75 45.53 227.62 45.59 218.25 24.43 218.38 24.37 227.75 45.53"/><rect class="cls-176" x="222.84" y="23.45" width="0.14" height="23.14" transform="translate(4.96 93.44) rotate(-23.93)"/><polygon class="cls-177" points="227.57 45.61 227.44 45.67 218.07 24.51 218.21 24.45 227.57 45.61"/><rect class="cls-178" x="222.66" y="23.53" width="0.14" height="23.14" transform="translate(4.78 92.87) rotate(-23.8)"/><rect class="cls-179" x="222.58" y="23.57" width="0.14" height="23.14" transform="translate(4.87 93.28) rotate(-23.92)"/><rect class="cls-180" x="222.49" y="23.6" width="0.14" height="23.14" transform="translate(4.79 93.01) rotate(-23.85)"/><rect class="cls-181" x="222.4" y="23.64" width="0.14" height="23.14" transform="translate(4.83 93.23) rotate(-23.92)"/><rect class="cls-182" x="222.31" y="23.68" width="0.14" height="23.14" transform="translate(4.74 92.95) rotate(-23.85)"/><rect class="cls-183" x="222.22" y="23.72" width="0.14" height="23.14" transform="translate(4.69 92.82) rotate(-23.83)"/><rect class="cls-183" x="218.69" y="24.49" width="3.75" height="23.14" transform="translate(4.28 92.35) rotate(-23.87)"/></g><path class="cls-5" d="M220.3,42.7l9.9,1.47s.88-11.37,14.17-16.59l-.88-11s-10.52,1-19,14.17c0,0-3.43,6.7-3.91,10.43C221,37.49,220.3,42.7,220.3,42.7Z"/><g class="cls-184"><rect class="cls-185" x="28.94" y="163.11" width="65.75" height="66.86"/></g><path class="cls-5" d="M28.82,199.64l10.28.41s-3.3-16.68,9.44-22.9c0,0,14.13-7.08,24.4,3.69,0,0,8.55,6.86,4.51,20.5,0,0-4.92,15-20.62,14.06L52,225.63s21.47,3.91,31.33-13.18c0,0,10.21-16.2,1.47-32.43,0,0-8.4-17.34-27.47-16.43,0,0-17.11-.88-25.14,16.78,0,0-4.4,5.74-3.54,18C27.8,186.11,28.82,199.64,28.82,199.64Z"/><g class="cls-186"><rect x="221.44" y="157.84" width="59.97" height="62.61"/></g><path class="cls-5" d="M231.51,189.15s-1.08-14,14.33-19.68c0,0,9.83-4.83,20.82,6.34,0,0,12.43,14-2.62,29.3,0,0-14.92,12.12-28.62-3.76l-11.35-.88s3.24,15.73,23.15,19.76c0,0,16.21,2.54,26-9.47,0,0,9.51-9.08,8-25.17,0,0-.88-17.31-17.5-25.08,0,0-15.79-7.83-30,3.35,0,0-10.1,6.46-12.3,21.64C221.43,185.39,231.51,189.15,231.51,189.15Z"/><text class="cls-187" transform="translate(226.58 254.67)">ectorización</text><text class="cls-188" transform="translate(51.65 109.13)">Photoshop</text><text class="cls-189" transform="translate(227.12 109.73)">Codiﬁcación</text><text class="cls-190" transform="translate(45.05 258.37)">Ilustración</text><text class="cls-191" transform="translate(61.02 47.16)">35%</text><text class="cls-192" transform="translate(236.17 53.51)">10%</text><text class="cls-193" transform="translate(48.35 200.71)">65%</text><text class="cls-194" transform="translate(239.29 193.47)">95%</text></svg>