<svg id="Capa_1" data-name="Capa 1" xmlns="http://www.w3.org/2000/svg" viewBox="0 0 39.43 38.29"><defs><style>.cls-1{fill:#fafbfa;fill-rule:evenodd;}</style></defs><title>icon1</title><path class="cls-1" d="M179.54,22.28l-2.33-1.41L176,22.26c-1.66-.26-3.05-2-3.73-3.51.23-1.47,1-1.32.36-3.28-1.19-3.87-4.79-.19-1.8,4.75,3.25,5.38,9.1,6.4,8.72,2.06M63.1,16.49c-.92.46-1.29.61-1.7,1.76a4,4,0,0,0,.05,3.11A3,3,0,0,0,65.63,23C69.15,21.17,67.19,14.44,63.1,16.49Zm-3,.23a7.67,7.67,0,0,0-.65,3.8A5.58,5.58,0,0,0,61,23.69c2,2.15,4,1.83,6.35.49,4.32-5.21.29-10.5-3.78-9.9C61.78,14.54,61,15.68,60.15,16.72Zm-2.83-4.91c1,.16.76,0,1,1.24.65-1.47,1.09.49,1.12.56.34.8-.06.37.65.71l1,.48c-.46.36-1.2,1.24-.92,1.92.88-1,1.63-2.18,3.4-2.44,4.07-.6,8.1,4.69,3.78,9.9,1.48-.11,1.38-.68,1.41,1.54l1.57,0c-.32,1.89.39-.3.22,1.74,0,.4-.26-.31,0,.54,2.12-1,1.77-4.29,1.76-7.41,0-9.49.43-10.19-7.63-10.18C61.92,10.44,58.71,9.9,57.32,11.81ZM70.49,28c-.22-.85,0-.14,0-.54.17-2-.54.15-.22-1.74l-1.57,0c0-2.22.07-1.65-1.41-1.54C65,25.52,63,25.84,61,23.69a5.58,5.58,0,0,1-1.48-3.17,7.67,7.67,0,0,1,.65-3.8c-.28-.68.46-1.56.92-1.92l-1-.48c-.71-.34-.31.09-.65-.71,0-.07-.47-2-1.12-.56-.27-1.19-.05-1.08-1-1.24-1.53,1.57-1.07,4.68-1.07,7.51,0,8.54-.31,9.43,7,9.45C65.34,28.78,69,29.32,70.49,28ZM17.33,14l-3.19,0,0,4.17,3.29.09v11l3.83.06.07-11,3.26-.05.54-4.29-3.68,0c-.82-4.38.26-4.88,3.69-4.86l.1-3.86C15.71,4.49,18.27,9,17.33,14Zm97,2.05A10.71,10.71,0,0,1,109,14.32c-1.92-1.17-2.49-2.44-4-3.39-.7,2.19-.75,4.65.94,5.88-1.89,1.58,1.48-.62-1.13.63l-.23.1c.34,2.18,1.18,3.48,2.77,4l-.62.45c-.64.56-.23-.28-.48.53,1.36,3,1.59,1.77,3.66,3.14-1.2,1.48-3.48,1.85-5.55,2.11,2,3.22,15,4.19,18.32-7.88,1.08-4-.52-3.73,1.73-6.2a4.86,4.86,0,0,0,1-1.41l-2,.53a11.91,11.91,0,0,0,1.41-2.41c-1.34.37-2,1.24-3.19.55s-1.6-1.48-3.52-1.16C115.71,10.24,114.15,12.65,114.3,16ZM167,28.11c1.45-.18,2.27-1,3.48-.49s1.56,1,3.3,1.16a7.7,7.7,0,0,0,6.42-2.5,10.31,10.31,0,0,0,.14-13.59c-5.3-5.92-14.93-1.17-14,8a10.09,10.09,0,0,0,1.13,3.66C168,25.57,167.26,26.43,167,28.11Zm-2.68,3a18.35,18.35,0,0,0,3.85-1.33c2.1-.78,2.22.18,4.15.68,9.49,2.48,16.41-10.72,9.32-19s-19.15-.38-16.8,10.57c.42,2,1.36,2.6.76,4.52A30.28,30.28,0,0,0,164.34,31.11ZM56.19,10.25c-1.63,3.2-1.56,2.81-1.55,7.53,0,2.17-.23,7.1.33,8.86,1.69,5.34,7.55,3.85,12.63,3.95,3.48.07,5.9-1.85,6.19-5.42.15-1.9.16-11.06-.21-12.36C72.09,7.63,66.17,8.6,60.29,8.65,58,8.68,57.63,9.28,56.19,10.25Z"/></svg>