<svg id="Capa_1" data-name="Capa 1" xmlns="http://www.w3.org/2000/svg" viewBox="0 0 30 32.94"><defs><style>.cls-1{fill:#fbfcfa;fill-rule:evenodd;}</style></defs><title>instagram</title><path class="cls-1" d="M149.1,20.59l-2.7-1.69L145,20.57c-1.93-.32-3.54-2.36-4.33-4.22.26-1.76,1.11-1.58.41-3.94-1.37-4.65-5.54-.23-2.08,5.7,3.77,6.47,10.55,7.7,10.11,2.48m-135-6.95a3,3,0,0,0-2,2.11,4.9,4.9,0,0,0,.07,3.73c.76,1.8,2.8,3.11,4.84,2C21.14,19.26,18.87,11.17,14.13,13.64Zm-3.42.27A9.47,9.47,0,0,0,10,18.48a6.87,6.87,0,0,0,1.72,3.81c2.28,2.58,4.6,2.19,7.35.58,5-6.25.34-12.61-4.38-11.89C12.59,11.29,11.72,12.67,10.71,13.91ZM7.43,8c1.13.2.87.06,1.18,1.49.76-1.77,1.27.59,1.31.67.39,1-.08.45.75.86l1.11.58c-.54.43-1.4,1.48-1.07,2.3,1-1.24,1.88-2.62,3.93-2.93,4.72-.72,9.4,5.64,4.38,11.89,1.72-.12,1.61-.82,1.64,1.86l1.82,0c-.36,2.27.45-.36.26,2.09,0,.48-.3-.38,0,.65,2.46-1.24,2-5.16,2-8.91,0-11.39.49-12.24-8.85-12.23C12.76,6.36,9,5.71,7.43,8ZM22.69,27.49c-.25-1,0-.17,0-.65.19-2.45-.62.18-.26-2.09l-1.82,0c0-2.68.08-2-1.64-1.86-2.75,1.61-5.07,2-7.35-.58A6.87,6.87,0,0,1,10,18.48a9.47,9.47,0,0,1,.76-4.57c-.33-.82.53-1.87,1.07-2.3L10.67,11c-.83-.41-.36.1-.75-.86,0-.08-.55-2.44-1.31-.67C8.3,8.07,8.56,8.21,7.43,8c-1.78,1.88-1.24,5.62-1.25,9,0,10.26-.36,11.32,8.13,11.36C16.72,28.4,21,29.05,22.69,27.49ZM-38.93,10.58l-3.7.06,0,5,3.81.11V29l4.44.06.08-13.26,3.78,0,.63-5.17-4.27,0c-1-5.27.3-5.87,4.28-5.84l.11-4.64C-40.81-.79-37.85,4.66-38.93,10.58Zm112.4,2.47a12.21,12.21,0,0,1-6.11-2C65.13,9.63,64.47,8.1,62.77,7,62,9.58,61.9,12.54,63.86,14c-2.19,1.91,1.71-.74-1.31.77a1.5,1.5,0,0,0-.27.12c.39,2.61,1.36,4.18,3.2,4.85l-.72.54c-.74.67-.25-.33-.55.64,1.58,3.61,1.84,2.13,4.24,3.77-1.38,1.77-4,2.22-6.43,2.53,2.35,3.87,17.43,5,21.23-9.46,1.26-4.8-.6-4.48,2-7.45a6.06,6.06,0,0,0,1.19-1.7l-2.31.64a13.59,13.59,0,0,0,1.63-2.9c-1.55.45-2.29,1.49-3.69.66S80.23,5.25,78,5.63C75.11,6.13,73.3,9,73.47,13.05ZM134.58,27.6c1.68-.22,2.64-1.18,4-.6s1.81,1.23,3.83,1.41a8.82,8.82,0,0,0,7.44-3,12.73,12.73,0,0,0,.16-16.33c-6.14-7.12-17.3-1.41-16.25,9.56A12.77,12.77,0,0,0,135.1,23C135.72,24.55,134.87,25.58,134.58,27.6Zm-3.1,3.6c1.19-.06,3.24-1.12,4.47-1.59,2.42-.94,2.57.21,4.8.81,11,3,19-12.88,10.8-22.79s-22.19-.45-19.47,12.71c.49,2.39,1.58,3.12.89,5.43A38.44,38.44,0,0,0,131.48,31.2ZM6.12,6.13C4.23,10,4.3,9.51,4.32,15.19c0,2.6-.26,8.53.38,10.64,2,6.41,8.76,4.63,14.64,4.74,4,.09,6.84-2.22,7.17-6.51.18-2.28.19-13.29-.24-14.85-1.73-6.22-8.58-5.06-15.4-5C8.21,4.25,7.78,5,6.12,6.13Z"/></svg>