<svg id="Capa_1" data-name="Capa 1" xmlns="http://www.w3.org/2000/svg" viewBox="0 0 32.79 35.29"><defs><style>.cls-1{fill:#fbfcfa;fill-rule:evenodd;}</style></defs><title>twitter</title><path class="cls-1" d="M91.67,20.59,89,18.9l-1.41,1.67c-1.93-.32-3.54-2.36-4.32-4.22.25-1.76,1.1-1.58.41-3.94-1.38-4.65-5.55-.23-2.08,5.7,3.77,6.47,10.54,7.7,10.1,2.48m-135-6.95a3,3,0,0,0-2,2.11,4.9,4.9,0,0,0,.07,3.73c.76,1.8,2.8,3.11,4.84,2C-36.29,19.26-38.56,11.17-43.3,13.64Zm-3.42.27a9.47,9.47,0,0,0-.76,4.57,6.93,6.93,0,0,0,1.72,3.81c2.28,2.58,4.6,2.19,7.35.58,5-6.25.34-12.61-4.38-11.89C-44.84,11.29-45.71,12.67-46.72,13.91ZM-50,8c1.13.2.87.06,1.19,1.49.75-1.77,1.26.59,1.3.67.39,1-.08.45.75.86l1.11.58c-.54.43-1.4,1.48-1.07,2.3,1-1.24,1.88-2.62,3.93-2.93,4.72-.72,9.4,5.64,4.38,11.89,1.73-.12,1.61-.82,1.64,1.86l1.82,0c-.36,2.27.45-.36.26,2.09,0,.48-.3-.38-.05.65,2.46-1.24,2.05-5.16,2.05-8.91,0-11.39.49-12.24-8.85-12.23C-44.67,6.36-48.4,5.71-50,8Zm15.26,19.48c-.25-1,0-.17.05-.65.19-2.45-.62.18-.26-2.09l-1.82,0c0-2.68.09-2-1.64-1.86-2.75,1.61-5.07,2-7.35-.58a6.93,6.93,0,0,1-1.72-3.81,9.47,9.47,0,0,1,.76-4.57c-.33-.82.53-1.87,1.07-2.3L-46.76,11c-.83-.41-.36.1-.75-.86,0-.08-.55-2.44-1.3-.67C-49.13,8.07-48.87,8.21-50,8c-1.78,1.88-1.24,5.62-1.25,9,0,10.26-.36,11.32,8.13,11.36C-40.71,28.4-36.44,29.05-34.74,27.49ZM-96.36,10.58l-3.7.06,0,5,3.81.11V29l4.45.06.08-13.26,3.77,0,.63-5.17-4.27,0c-1-5.27.3-5.87,4.28-5.84l.11-4.64C-98.24-.79-95.27,4.66-96.36,10.58ZM16,13.05a12.21,12.21,0,0,1-6.11-2C7.7,9.63,7,8.1,5.34,7,4.53,9.58,4.47,12.54,6.43,14c-2.19,1.91,1.72-.74-1.31.77a1.5,1.5,0,0,0-.27.12c.39,2.61,1.36,4.18,3.2,4.85l-.71.54c-.75.67-.26-.33-.56.64C8.36,24.54,8.62,23.06,11,24.7c-1.38,1.77-4,2.22-6.42,2.53,2.34,3.87,17.42,5,21.22-9.46,1.26-4.8-.59-4.48,2-7.45A6.06,6.06,0,0,0,29,8.62l-2.3.64a14.51,14.51,0,0,0,1.63-2.9c-1.56.45-2.3,1.49-3.7.66S22.8,5.25,20.58,5.63C17.69,6.13,15.88,9,16,13.05ZM77.15,27.6c1.68-.22,2.65-1.18,4-.6S83,28.23,85,28.41a8.81,8.81,0,0,0,7.44-3,12.73,12.73,0,0,0,.16-16.33C86.48,2,75.32,7.66,76.37,18.63A12.77,12.77,0,0,0,77.67,23C78.29,24.55,77.44,25.58,77.15,27.6Zm-3.1,3.6c1.19-.06,3.25-1.12,4.47-1.59,2.42-.94,2.57.21,4.8.81,11,3,19-12.88,10.8-22.79S71.93,7.18,74.65,20.34c.5,2.39,1.58,3.12.89,5.43A38.44,38.44,0,0,0,74.05,31.2ZM-51.31,6.13c-1.89,3.85-1.82,3.38-1.8,9.06,0,2.6-.26,8.53.38,10.64,2,6.41,8.76,4.63,14.65,4.74,4,.09,6.84-2.22,7.17-6.51.17-2.28.18-13.29-.25-14.85-1.73-6.22-8.58-5.06-15.4-5C-49.22,4.25-49.65,5-51.31,6.13Z"/></svg>