<svg id="Capa_1" data-name="Capa 1" xmlns="http://www.w3.org/2000/svg" viewBox="0 0 38.14 37.01"><defs><style>.cls-1{fill:#fbfcfa;fill-rule:evenodd;}</style></defs><title>whatsapp</title><path class="cls-1" d="M25,20.59l-2.7-1.69-1.41,1.67c-1.93-.32-3.55-2.36-4.33-4.22.26-1.76,1.11-1.58.41-3.94-1.37-4.65-5.54-.23-2.08,5.7,3.77,6.47,10.55,7.7,10.11,2.48m-135-6.95a3,3,0,0,0-2,2.11,4.9,4.9,0,0,0,.07,3.73c.76,1.8,2.8,3.11,4.84,2C-102.94,19.26-105.2,11.17-109.94,13.64Zm-3.42.27a9.47,9.47,0,0,0-.76,4.57,6.8,6.8,0,0,0,1.72,3.81c2.28,2.58,4.6,2.19,7.35.58,5-6.25.34-12.61-4.38-11.89C-111.48,11.29-112.35,12.67-113.36,13.91ZM-116.65,8c1.14.2.88.06,1.19,1.49.76-1.77,1.27.59,1.3.67.4,1-.07.45.75.86l1.12.58c-.54.43-1.4,1.48-1.07,2.3,1-1.24,1.88-2.62,3.93-2.93,4.72-.72,9.4,5.64,4.38,11.89,1.72-.12,1.61-.82,1.64,1.86l1.82,0c-.36,2.27.45-.36.26,2.09,0,.48-.31-.38,0,.65,2.46-1.24,2-5.16,2-8.91,0-11.39.5-12.24-8.84-12.23C-111.31,6.36-115,5.71-116.65,8Zm15.27,19.48c-.26-1,0-.17,0-.65.19-2.45-.62.18-.26-2.09l-1.82,0c0-2.68.08-2-1.64-1.86-2.75,1.61-5.07,2-7.35-.58a6.8,6.8,0,0,1-1.72-3.81,9.47,9.47,0,0,1,.76-4.57c-.33-.82.53-1.87,1.07-2.3l-1.12-.58c-.82-.41-.35.1-.75-.86,0-.08-.54-2.44-1.3-.67-.31-1.43-.05-1.29-1.19-1.49-1.77,1.88-1.24,5.62-1.24,9,0,10.26-.36,11.32,8.13,11.36C-107.36,28.4-103.09,29.05-101.38,27.49ZM-163,10.58l-3.7.06,0,5,3.81.11V29l4.44.06.08-13.26,3.78,0,.63-5.17-4.27,0c-1-5.27.3-5.87,4.28-5.84l.11-4.64C-164.88-.79-161.92,4.66-163,10.58Zm112.4,2.47a12.17,12.17,0,0,1-6.11-2C-58.94,9.63-59.6,8.1-61.3,7c-.82,2.62-.87,5.58,1.08,7.05-2.18,1.91,1.72-.74-1.3.77a1.5,1.5,0,0,0-.27.12c.38,2.61,1.36,4.18,3.2,4.85l-.72.54c-.74.67-.25-.33-.55.64,1.58,3.61,1.84,2.13,4.24,3.77-1.39,1.77-4,2.22-6.43,2.53,2.35,3.87,17.43,5,21.23-9.46,1.26-4.8-.6-4.48,2-7.45a6.06,6.06,0,0,0,1.19-1.7l-2.31.64a13.59,13.59,0,0,0,1.63-2.9c-1.55.45-2.29,1.49-3.7.66s-1.85-1.77-4.08-1.39C-49,6.13-50.77,9-50.6,13.05ZM10.51,27.6c1.68-.22,2.64-1.18,4-.6s1.81,1.23,3.82,1.41a8.83,8.83,0,0,0,7.45-3A12.74,12.74,0,0,0,26,9.07C19.84,2,8.68,7.66,9.72,18.63A13,13,0,0,0,11,23C11.64,24.55,10.8,25.58,10.51,27.6Zm-3.1,3.6c1.19-.06,3.24-1.12,4.47-1.59,2.42-.94,2.57.21,4.8.81,11,3,19-12.88,10.8-22.79S5.29,7.18,8,20.34c.49,2.39,1.58,3.12.89,5.43A35.93,35.93,0,0,0,7.41,31.2ZM-118,6.13c-1.89,3.85-1.81,3.38-1.8,9.06,0,2.6-.25,8.53.39,10.64,2,6.41,8.76,4.63,14.64,4.74,4,.09,6.84-2.22,7.17-6.51.18-2.28.19-13.29-.24-14.85-1.73-6.22-8.58-5.06-15.4-5C-115.86,4.25-116.29,5-118,6.13Z"/></svg>